<svg width="614" height="122" viewBox="0 0 614 122" fill="none" xmlns="http://www.w3.org/2000/svg">
<path d="M0 25C0 11.1929 11.1929 0 25 0H122V97C122 110.807 110.807 122 97 122H0V25Z" fill="#424242"/>
<path d="M96.1368 37.5799C96.9885 36.7118 97.2354 35.4184 96.7633 34.2986C96.2917 33.1787 95.1928 32.4503 93.9749 32.4503H79.2952L90.618 21.1529C91.7996 19.9741 91.7996 18.0625 90.618 16.8839C89.4362 15.7054 87.5212 15.7054 86.3397 16.8839L70.7382 32.4503H28.0251C26.8072 32.4503 25.7083 33.1787 25.2367 34.2986C24.7646 35.4184 25.0115 36.7118 25.8632 37.5799L57.975 70.3127V98.9633H44.5128C42.8421 98.9633 41.4875 100.315 41.4875 101.981C41.4875 103.648 42.8421 105 44.5128 105H77.4875C79.1583 105 80.5128 103.649 80.5128 101.982C80.5128 100.315 79.158 98.9636 77.4875 98.9636H64.0253V70.313L96.1368 37.5799ZM76.0218 49.4538L61 64.7663L45.9782 49.4538H76.0218ZM86.7806 38.487L81.9439 43.4167H68.3037L73.2446 38.487H86.7806ZM64.6879 38.487L59.7467 43.4167H40.0561L35.2194 38.487H64.6879Z" fill="white"/>
<path d="M182.6 38.304L167.048 84H156.488L141 38.304H150.792L159.368 65.504C159.539 65.9733 159.773 66.848 160.072 68.128C160.413 69.3653 160.755 70.688 161.096 72.096C161.437 73.4613 161.672 74.6133 161.8 75.552C161.928 74.6133 162.141 73.4613 162.44 72.096C162.781 70.688 163.123 69.3653 163.464 68.128C163.805 66.848 164.04 65.9733 164.168 65.504L172.808 38.304H182.6ZM197.153 49.056V84H187.617V49.056H197.153ZM192.417 35.36C193.825 35.36 195.041 35.7013 196.065 36.384C197.089 37.024 197.601 38.24 197.601 40.032C197.601 41.7813 197.089 42.9973 196.065 43.68C195.041 44.3627 193.825 44.704 192.417 44.704C190.966 44.704 189.729 44.3627 188.705 43.68C187.724 42.9973 187.233 41.7813 187.233 40.032C187.233 38.24 187.724 37.024 188.705 36.384C189.729 35.7013 190.966 35.36 192.417 35.36ZM216.653 57.12C216.653 58.4427 216.589 59.7653 216.461 61.088C216.376 62.368 216.269 63.6693 216.141 64.992H216.269C216.696 64.3947 217.122 63.7973 217.549 63.2C218.018 62.6027 218.488 62.0053 218.957 61.408C219.426 60.8107 219.917 60.2347 220.429 59.68L230.221 49.056H240.973L227.085 64.224L241.805 84H230.797L220.749 69.856L216.653 73.12V84H207.117V35.36H216.653V57.12ZM256.341 57.12C256.341 58.4427 256.277 59.7653 256.149 61.088C256.063 62.368 255.957 63.6693 255.829 64.992H255.957C256.383 64.3947 256.81 63.7973 257.237 63.2C257.706 62.6027 258.175 62.0053 258.645 61.408C259.114 60.8107 259.605 60.2347 260.117 59.68L269.909 49.056H280.661L266.773 64.224L281.493 84H270.485L260.437 69.856L256.341 73.12V84H246.805V35.36H256.341V57.12ZM300.892 48.416C304.135 48.416 306.908 49.0347 309.212 50.272C311.559 51.5093 313.372 53.3013 314.652 55.648C315.932 57.9947 316.572 60.8747 316.572 64.288V68.896H294.044C294.129 71.584 294.919 73.696 296.412 75.232C297.948 76.768 300.06 77.536 302.748 77.536C305.009 77.536 307.057 77.3227 308.892 76.896C310.727 76.4267 312.625 75.7227 314.588 74.784V82.144C312.881 82.9973 311.068 83.616 309.148 84C307.271 84.4267 304.988 84.64 302.3 84.64C298.801 84.64 295.708 84 293.02 82.72C290.332 81.3973 288.22 79.4133 286.684 76.768C285.148 74.1227 284.38 70.7947 284.38 66.784C284.38 62.688 285.063 59.296 286.428 56.608C287.836 53.8773 289.777 51.8293 292.252 50.464C294.727 49.0987 297.607 48.416 300.892 48.416ZM300.956 55.2C299.121 55.2 297.585 55.7973 296.348 56.992C295.153 58.1867 294.449 60.0427 294.236 62.56H307.612C307.612 61.152 307.356 59.8933 306.844 58.784C306.375 57.6747 305.649 56.8 304.668 56.16C303.687 55.52 302.449 55.2 300.956 55.2ZM348.689 73.632C348.689 75.9787 348.134 77.984 347.025 79.648C345.915 81.2693 344.251 82.5067 342.033 83.36C339.814 84.2133 337.062 84.64 333.777 84.64C331.345 84.64 329.254 84.4693 327.505 84.128C325.755 83.8293 324.006 83.3173 322.257 82.592V74.72C324.134 75.5733 326.161 76.2773 328.337 76.832C330.513 77.3867 332.433 77.664 334.097 77.664C335.974 77.664 337.297 77.3867 338.065 76.832C338.875 76.2773 339.281 75.552 339.281 74.656C339.281 74.0587 339.11 73.5253 338.769 73.056C338.47 72.5867 337.787 72.0533 336.721 71.456C335.654 70.8587 333.99 70.0907 331.729 69.152C329.553 68.2133 327.761 67.296 326.353 66.4C324.945 65.4613 323.899 64.352 323.217 63.072C322.534 61.7493 322.193 60.1067 322.193 58.144C322.193 54.9013 323.451 52.4693 325.969 50.848C328.486 49.2267 331.835 48.416 336.017 48.416C338.193 48.416 340.262 48.6293 342.225 49.056C344.187 49.4827 346.214 50.1867 348.305 51.168L345.425 58.016C344.273 57.504 343.163 57.056 342.097 56.672C341.03 56.288 339.985 55.9893 338.961 55.776C337.979 55.5627 336.955 55.456 335.889 55.456C334.481 55.456 333.414 55.648 332.689 56.032C332.006 56.416 331.665 56.992 331.665 57.76C331.665 58.3147 331.835 58.8267 332.177 59.296C332.561 59.7227 333.265 60.192 334.289 60.704C335.355 61.216 336.913 61.8987 338.961 62.752C340.966 63.5627 342.694 64.416 344.145 65.312C345.595 66.1653 346.705 67.2533 347.473 68.576C348.283 69.856 348.689 71.5413 348.689 73.632ZM411.398 60.704C411.398 65.824 410.417 70.112 408.454 73.568C406.491 77.024 403.633 79.6267 399.878 81.376C396.166 83.1253 391.686 84 386.438 84H373.51V38.304H387.846C392.625 38.304 396.763 39.1573 400.262 40.864C403.803 42.5707 406.534 45.088 408.454 48.416C410.417 51.7013 411.398 55.7973 411.398 60.704ZM401.35 60.96C401.35 57.5893 400.859 54.816 399.878 52.64C398.897 50.464 397.425 48.864 395.462 47.84C393.542 46.7733 391.174 46.24 388.358 46.24H383.174V76H387.334C392.07 76 395.59 74.7413 397.894 72.224C400.198 69.7067 401.35 65.952 401.35 60.96ZM439.637 48.416C440.106 48.416 440.661 48.4373 441.301 48.48C441.941 48.5227 442.453 48.5867 442.837 48.672L442.133 57.632C441.834 57.5467 441.386 57.4827 440.789 57.44C440.234 57.3547 439.744 57.312 439.317 57.312C438.08 57.312 436.885 57.4827 435.733 57.824C434.581 58.1227 433.536 58.6133 432.597 59.296C431.701 59.9787 430.976 60.896 430.421 62.048C429.909 63.1573 429.653 64.544 429.653 66.208V84H420.117V49.056H427.349L428.757 54.944H429.205C429.888 53.7493 430.741 52.6613 431.765 51.68C432.789 50.6987 433.962 49.9093 435.285 49.312C436.65 48.7147 438.101 48.416 439.637 48.416ZM458.716 49.056V84H449.18V49.056H458.716ZM453.98 35.36C455.388 35.36 456.604 35.7013 457.628 36.384C458.652 37.024 459.164 38.24 459.164 40.032C459.164 41.7813 458.652 42.9973 457.628 43.68C456.604 44.3627 455.388 44.704 453.98 44.704C452.529 44.704 451.292 44.3627 450.268 43.68C449.286 42.9973 448.796 41.7813 448.796 40.032C448.796 38.24 449.286 37.024 450.268 36.384C451.292 35.7013 452.529 35.36 453.98 35.36ZM488.52 48.416C492.274 48.416 495.282 49.44 497.544 51.488C499.805 53.4933 500.936 56.736 500.936 61.216V84H491.4V63.584C491.4 61.0667 490.952 59.1893 490.056 57.952C489.16 56.672 487.73 56.032 485.768 56.032C482.866 56.032 480.882 57.0347 479.816 59.04C478.749 61.0027 478.216 63.84 478.216 67.552V84H468.68V49.056H475.976L477.256 53.536H477.768C478.536 52.3413 479.474 51.3813 480.583 50.656C481.693 49.888 482.93 49.3333 484.296 48.992C485.661 48.608 487.069 48.416 488.52 48.416ZM520.278 57.12C520.278 58.4427 520.214 59.7653 520.086 61.088C520.001 62.368 519.894 63.6693 519.766 64.992H519.894C520.321 64.3947 520.747 63.7973 521.174 63.2C521.643 62.6027 522.113 62.0053 522.582 61.408C523.051 60.8107 523.542 60.2347 524.054 59.68L533.846 49.056H544.598L530.71 64.224L545.43 84H534.422L524.374 69.856L520.278 73.12V84H510.742V35.36H520.278V57.12ZM574.814 73.632C574.814 75.9787 574.259 77.984 573.15 79.648C572.04 81.2693 570.376 82.5067 568.158 83.36C565.939 84.2133 563.187 84.64 559.902 84.64C557.47 84.64 555.379 84.4693 553.63 84.128C551.88 83.8293 550.131 83.3173 548.382 82.592V74.72C550.259 75.5733 552.286 76.2773 554.462 76.832C556.638 77.3867 558.558 77.664 560.222 77.664C562.099 77.664 563.422 77.3867 564.19 76.832C565 76.2773 565.406 75.552 565.406 74.656C565.406 74.0587 565.235 73.5253 564.894 73.056C564.595 72.5867 563.912 72.0533 562.846 71.456C561.779 70.8587 560.115 70.0907 557.854 69.152C555.678 68.2133 553.886 67.296 552.478 66.4C551.07 65.4613 550.024 64.352 549.342 63.072C548.659 61.7493 548.318 60.1067 548.318 58.144C548.318 54.9013 549.576 52.4693 552.094 50.848C554.611 49.2267 557.96 48.416 562.142 48.416C564.318 48.416 566.387 48.6293 568.35 49.056C570.312 49.4827 572.339 50.1867 574.43 51.168L571.55 58.016C570.398 57.504 569.288 57.056 568.222 56.672C567.155 56.288 566.11 55.9893 565.086 55.776C564.104 55.5627 563.08 55.456 562.014 55.456C560.606 55.456 559.539 55.648 558.814 56.032C558.131 56.416 557.79 56.992 557.79 57.76C557.79 58.3147 557.96 58.8267 558.302 59.296C558.686 59.7227 559.39 60.192 560.414 60.704C561.48 61.216 563.038 61.8987 565.086 62.752C567.091 63.5627 568.819 64.416 570.27 65.312C571.72 66.1653 572.83 67.2533 573.598 68.576C574.408 69.856 574.814 71.5413 574.814 73.632Z" fill="#424242"/>
</svg>
